<svg id="_x31__x2C_5" enable-background="new 0 0 24 24" height="512" viewBox="0 0 24 24" width="512" xmlns="http://www.w3.org/2000/svg"><path d="m20 19c-1.103 0-2-.897-2-2s.897-2 2-2 2 .897 2 2-.897 2-2 2zm0-2.5c-.275 0-.5.225-.5.5s.225.5.5.5.5-.225.5-.5-.225-.5-.5-.5z"/><path d="m23.25 24c-.414 0-.75-.336-.75-.75v-.5c0-.689-.561-1.25-1.25-1.25h-2.5c-.689 0-1.25.561-1.25 1.25v.5c0 .414-.336.75-.75.75s-.75-.336-.75-.75v-.5c0-1.517 1.233-2.75 2.75-2.75h2.5c1.517 0 2.75 1.233 2.75 2.75v.5c0 .414-.336.75-.75.75z"/><path d="m8.5 21c-.048 0-.096-.005-.143-.014-.084-.016-8.357-1.725-8.357-11.057v-6.179c0-.31.19-.587.479-.699l7.75-3c.174-.067.367-.067.541 0l7.75 3c.29.112.48.389.48.699v6.179c0 9.332-8.273 11.041-8.357 11.058-.047.008-.095.013-.143.013zm-7-16.736v5.665c0 7.563 5.959 9.307 6.998 9.554 1.035-.251 7.002-2.021 7.002-9.554v-5.665l-7-2.709z"/></svg>