<?xml version="1.0" encoding="iso-8859-1"?>
<!-- Generator: Adobe Illustrator 19.0.0, SVG Export Plug-In . SVG Version: 6.00 Build 0)  -->
<svg version="1.1" id="Capa_1" xmlns="http://www.w3.org/2000/svg" xmlns:xlink="http://www.w3.org/1999/xlink" x="0px" y="0px"
	 viewBox="0 0 470 470" style="enable-background:new 0 0 470 470;" xml:space="preserve">
<g>
	<path d="M299,86.502h-35.128V51.374c0-4.142-3.357-7.5-7.5-7.5h-42.744c-4.142,0-7.5,3.358-7.5,7.5v35.128H171
		c-4.142,0-7.5,3.358-7.5,7.5v42.744c0,4.142,3.358,7.5,7.5,7.5h35.127v35.128c0,4.142,3.358,7.5,7.5,7.5h42.744
		c4.143,0,7.5-3.358,7.5-7.5v-35.128H299c4.143,0,7.5-3.358,7.5-7.5V94.002C306.5,89.86,303.142,86.502,299,86.502z M291.5,129.246
		h-35.128c-4.143,0-7.5,3.358-7.5,7.5v35.128h-27.744v-35.128c0-4.142-3.358-7.5-7.5-7.5H178.5v-27.744h35.127
		c4.142,0,7.5-3.358,7.5-7.5V58.874h27.744v35.128c0,4.142,3.357,7.5,7.5,7.5H291.5V129.246z"/>
	<path d="M402.687,413.792c4.143,0,7.5-3.358,7.5-7.5v-33.949c0-4.142-3.357-7.5-7.5-7.5s-7.5,3.358-7.5,7.5v33.949
		C395.187,410.434,398.545,413.792,402.687,413.792z"/>
	<path d="M402.687,323.635c4.143,0,7.5-3.358,7.5-7.5v-33.949c0-4.142-3.357-7.5-7.5-7.5s-7.5,3.358-7.5,7.5v33.949
		C395.187,320.277,398.545,323.635,402.687,323.635z"/>
	<path d="M402.687,233.478c4.143,0,7.5-3.358,7.5-7.5v-33.949c0-4.142-3.357-7.5-7.5-7.5s-7.5,3.358-7.5,7.5v33.949
		C395.187,230.12,398.545,233.478,402.687,233.478z"/>
	<path d="M67.313,364.843c-4.142,0-7.5,3.358-7.5,7.5v33.949c0,4.142,3.358,7.5,7.5,7.5s7.5-3.358,7.5-7.5v-33.949
		C74.813,368.201,71.455,364.843,67.313,364.843z"/>
	<path d="M67.313,274.686c-4.142,0-7.5,3.358-7.5,7.5v33.949c0,4.142,3.358,7.5,7.5,7.5s7.5-3.358,7.5-7.5v-33.949
		C74.813,278.043,71.455,274.686,67.313,274.686z"/>
	<path d="M67.313,184.528c-4.142,0-7.5,3.358-7.5,7.5v33.949c0,4.142,3.358,7.5,7.5,7.5s7.5-3.358,7.5-7.5v-33.949
		C74.813,187.886,71.455,184.528,67.313,184.528z"/>
	<path d="M462.5,128.32H350.374V15h2.5c4.143,0,7.5-3.358,7.5-7.5s-3.357-7.5-7.5-7.5H117.126c-4.142,0-7.5,3.358-7.5,7.5
		s3.358,7.5,7.5,7.5h2.5v113.32H7.5c-4.142,0-7.5,3.358-7.5,7.5V462.5c0,4.142,3.358,7.5,7.5,7.5h455c4.143,0,7.5-3.358,7.5-7.5
		V135.82C470,131.678,466.642,128.32,462.5,128.32z M15,143.32h104.625V455H15V143.32z M291.5,312.826V455h-49V312.826H291.5z
		 M227.5,455h-49V312.826h49V455z M455,455H350.374V195.82c0-4.142-3.357-7.5-7.5-7.5s-7.5,3.358-7.5,7.5V455H306.5V305.326
		c0-4.142-3.357-7.5-7.5-7.5H171c-4.142,0-7.5,3.358-7.5,7.5V455h-28.875V15h200.748v150.82c0,4.142,3.357,7.5,7.5,7.5
		s7.5-3.358,7.5-7.5v-22.5H455V455z"/>
</g>
<g>
</g>
<g>
</g>
<g>
</g>
<g>
</g>
<g>
</g>
<g>
</g>
<g>
</g>
<g>
</g>
<g>
</g>
<g>
</g>
<g>
</g>
<g>
</g>
<g>
</g>
<g>
</g>
<g>
</g>
</svg>
