<?xml version="1.0" encoding="iso-8859-1"?>
<!-- Generator: Adobe Illustrator 19.0.0, SVG Export Plug-In . SVG Version: 6.00 Build 0)  -->
<svg version="1.1" id="Capa_1" xmlns="http://www.w3.org/2000/svg" xmlns:xlink="http://www.w3.org/1999/xlink" x="0px" y="0px"
	 viewBox="0 0 512.002 512.002" style="enable-background:new 0 0 512.002 512.002;" xml:space="preserve">
<g>
	<g>
		<path d="M424.772,236.141c-4.143,0-7.5,3.357-7.5,7.5V383.78c0,62.431-50.791,113.222-113.223,113.222H269.31
			c-62.432,0-113.223-50.791-113.223-113.221l0.002-34.404c0-4.142-3.357-7.5-7.5-7.5c-4.142,0-7.5,3.357-7.5,7.499l-0.002,34.404
			c0,70.702,57.521,128.222,128.223,128.222h34.739c70.702,0,128.223-57.52,128.223-128.223V243.64
			C432.272,239.498,428.914,236.141,424.772,236.141z"/>
	</g>
</g>
<g>
	<g>
		<path d="M398.923,236.911c-4.143,0-7.5,3.357-7.5,7.5V383.78c0,48.177-39.195,87.371-87.372,87.371h-34.74
			c-48.178,0-87.373-39.203-87.373-87.393l-0.038-94.737c31.039-6.199,57.767-26.592,71.919-55.055
			c3.192-6.419,2.836-13.903-0.953-20.02c-1.12-1.807-2.485-3.395-4.03-4.746c0.306-1.268,0.596-2.543,0.846-3.834L282.741,75.71
			c0.037-0.146,0.069-0.292,0.098-0.44c4.014-20.917-9.054-41.25-29.749-46.289l-10.305-2.509
			c-1.372-5.626-5.052-11.114-10.807-15.943c-6.666-5.595-15.136-9.457-22.659-10.331c-16.088-1.871-30.705,9.699-32.577,25.793
			c-1.869,16.093,9.701,30.707,25.793,32.576c1.247,0.145,2.533,0.216,3.853,0.216c6.653,0,14.086-1.806,20.572-5.074
			c6.384-3.217,11.072-7.448,13.775-12.298l8.805,2.144c12.848,3.128,20.984,15.699,18.606,28.68l-33.053,129.64
			c-0.037,0.146-0.07,0.292-0.098,0.44c-0.117,0.608-0.248,1.209-0.378,1.81c-7.585,0.219-14.557,4.598-17.876,11.303
			c-10.264,20.728-31.819,34.119-54.914,34.119c-23.27,0-44.24-12.931-54.726-33.746c-3.473-6.896-10.482-11.41-18.061-11.672
			c-0.131-0.603-0.262-1.207-0.379-1.815c-0.027-0.148-0.061-0.294-0.098-0.44L55.507,72.237
			c-2.379-12.981,5.758-25.552,18.605-28.68l8.782-2.138c6.219,11.242,22.201,17.36,34.453,17.36c1.303,0,2.568-0.069,3.772-0.21
			c16.092-1.87,27.662-16.484,25.793-32.577c-1.871-16.092-16.473-27.66-32.578-25.792C106.81,1.075,98.34,4.936,91.673,10.531
			c-5.754,4.829-9.434,10.317-10.806,15.943l-10.304,2.508C49.869,34.02,36.8,54.353,40.814,75.271
			c0.028,0.148,0.061,0.294,0.098,0.44l33.059,129.657c0.25,1.289,0.539,2.564,0.845,3.831c-1.596,1.393-2.995,3.043-4.133,4.918
			c-3.69,6.082-4.007,13.503-0.848,19.848c14.052,28.262,40.499,48.568,71.258,54.923l-0.002,25.739c0,4.142,3.357,7.5,7.499,7.5
			c0.001,0,0.001,0,0.001,0c4.142,0,7.5-3.357,7.5-7.499l0.002-29.505c0-5.133-3.675-9.474-8.737-10.321
			c-27.639-4.628-51.597-22.389-64.09-47.516c-0.867-1.742-0.778-3.706,0.244-5.389c1.036-1.71,2.836-2.753,4.747-2.79l0.163-0.002
			c2.122,0,4.245,1.384,5.284,3.446c13.052,25.905,39.156,41.998,68.123,41.998c28.751,0,55.582-16.668,68.356-42.463
			c0.883-1.783,2.902-2.98,5.025-2.98c2.04,0,3.83,0.999,4.908,2.742c1.05,1.696,1.15,3.678,0.272,5.441
			c-12.457,25.053-36.317,42.785-63.858,47.473l-0.231,0.023c-5.359,0.548-9.402,5.024-9.402,10.415l0.04,98.563
			c0,56.459,45.925,102.391,102.373,102.391h34.74c56.449,0,102.372-45.924,102.372-102.372V244.411
			C406.423,240.27,403.066,236.911,398.923,236.911z M228.363,31.992c-0.325,2.805-3.373,5.915-8.152,8.324
			c-5.099,2.569-11.356,3.887-15.943,3.354c-7.877-0.915-13.54-8.069-12.625-15.945c0.85-7.316,7.08-12.722,14.274-12.722
			c0.552,0,1.11,0.032,1.67,0.097c4.585,0.533,10.374,3.25,14.749,6.922C226.436,25.461,228.689,29.189,228.363,31.992z
			 M116.065,15.099c7.867-0.906,15.031,4.748,15.945,12.624c0.915,7.878-4.748,15.031-12.625,15.946
			c-9.645,1.117-23.382-5.537-24.096-11.678C94.575,25.851,106.419,16.221,116.065,15.099z"/>
	</g>
</g>
<g>
	<g>
		<path d="M410.287,96.867c-33.981,0-61.625,27.645-61.625,61.625c0,33.98,27.645,61.625,61.625,61.625
			c33.98,0,61.625-27.645,61.625-61.625S444.267,96.867,410.287,96.867z M410.287,205.116c-25.709,0-46.625-20.916-46.625-46.625
			s20.916-46.625,46.625-46.625c25.709,0,46.625,20.915,46.625,46.625S435.995,205.116,410.287,205.116z"/>
	</g>
</g>
<g>
	<g>
		<path d="M410.287,129.905c-15.762,0-28.587,12.824-28.587,28.586s12.824,28.586,28.587,28.586
			c15.763,0,28.586-12.824,28.586-28.586S426.049,129.905,410.287,129.905z M410.287,172.078c-7.492,0-13.586-6.095-13.586-13.586
			c0-7.491,6.095-13.585,13.586-13.585c7.491,0,13.586,6.095,13.586,13.585C423.872,165.983,417.778,172.078,410.287,172.078z"/>
	</g>
</g>
<g>
</g>
<g>
</g>
<g>
</g>
<g>
</g>
<g>
</g>
<g>
</g>
<g>
</g>
<g>
</g>
<g>
</g>
<g>
</g>
<g>
</g>
<g>
</g>
<g>
</g>
<g>
</g>
<g>
</g>
</svg>
